<svg width="210" height="51" viewBox="0 0 210 51" fill="none" xmlns="http://www.w3.org/2000/svg">
<path d="M29.7732 7.04004H7.15332" stroke="#6A66E7" stroke-width="6.9" stroke-miterlimit="10" stroke-linecap="round"/>
<path d="M44.2202 44.6689L60.9693 7.04004" stroke="#6A66E7" stroke-width="6.9" stroke-miterlimit="10" stroke-linecap="round"/>
<path d="M77.43 44.6689L60.9688 7.04004" stroke="#6A66E7" stroke-width="6.9" stroke-miterlimit="10" stroke-linecap="round"/>
<path d="M29.7732 25.8545H7.15332" stroke="#6A66E7" stroke-width="6.9" stroke-miterlimit="10" stroke-linecap="round"/>
<path d="M7.15332 44.669V25.9941" stroke="#6A66E7" stroke-width="6.9" stroke-miterlimit="10" stroke-linecap="round"/>
<path d="M176.025 44.6694V30.9912" stroke="#6A66E7" stroke-width="6.9" stroke-miterlimit="10" stroke-linecap="round"/>
<path d="M176.025 30.9912H190.501" stroke="#6A66E7" stroke-width="6.9" stroke-miterlimit="10" stroke-linecap="round"/>
<path d="M176.025 7.04004H190.501" stroke="#6A66E7" stroke-width="6.9" stroke-miterlimit="10" stroke-linecap="round"/>
<path d="M202.818 44.6694L193.436 30.9912" stroke="#6A66E7" stroke-width="6.9" stroke-miterlimit="10" stroke-linecap="round"/>
<path d="M147.074 44.6689V35.6804C147.267 33.3001 146.811 30.9124 145.75 28.7576L132.685 7.04004" stroke="#6A66E7" stroke-width="6.9" stroke-linecap="round" stroke-linejoin="round"/>
<path d="M147.074 44.6689V35.6804C146.881 33.3001 147.337 30.9124 148.398 28.7576L161.463 7.04004" stroke="#6A66E7" stroke-width="6.9" stroke-linecap="round" stroke-linejoin="round"/>
<path d="M29.7732 44.6689H7.15332" stroke="#6A66E7" stroke-width="6.9" stroke-miterlimit="10" stroke-linecap="round"/>
<path d="M190.501 7.04004C193.775 7.04004 196.916 8.30173 199.231 10.5475C201.546 12.7934 202.847 15.8393 202.847 19.0154C202.847 22.1915 201.546 25.2375 199.231 27.4833C196.916 29.7291 193.775 30.9908 190.501 30.9908" stroke="#6A66E7" stroke-width="6.9" stroke-miterlimit="10" stroke-linecap="round"/>
<path d="M91.9643 39.8956C93.6112 41.5724 95.6234 42.8711 97.854 43.697C100.085 44.5228 102.477 44.8549 104.857 44.669C112.282 44.669 118.297 42.3521 118.297 35.2618C118.23 33.4684 117.591 31.7394 116.467 30.314C115.343 28.8887 113.79 27.8375 112.023 27.3061C107.764 25.4917 102.353 26.2733 97.979 24.5147C96.1433 24.0254 94.5179 22.9776 93.3419 21.5254C92.1659 20.0731 91.5015 18.2932 91.4463 16.4473C91.4463 9.8874 97.0293 7.04011 104.857 7.04011C109.267 6.99707 113.581 8.28473 117.203 10.7248" stroke="#6A66E7" stroke-width="6.9" stroke-linecap="round" stroke-linejoin="round"/>
</svg>
